<!-- manbok app icon — SMALL-SIZE variant, used for the 16pt and 32pt iconset
     entries (icon_16x16, icon_16x16@2x, icon_32x32, icon_32x32@2x).
     Ear artwork by the project owner, path data copied verbatim from
     mockups/icon/manbok-menubar-icon-watching.svg — do not redraw.
     Rings dropped and the ear enlarged (per-size tuning) so it stays legible
     at 16-64px, where the full 3-ring composition turns to visual noise. -->
<svg xmlns="http://www.w3.org/2000/svg" viewBox="0 0 1024 1024">
  <defs>
    <linearGradient id="bg" x1="0" y1="0" x2="0" y2="1">
      <stop offset="0" stop-color="#241D15"/>
      <stop offset="0.55" stop-color="#1B1611"/>
      <stop offset="1" stop-color="#14100C"/>
    </linearGradient>
    <radialGradient id="coreGlow" cx="42%" cy="36%" r="75%">
      <stop offset="0" stop-color="#FFD9A0" stop-opacity="0.95"/>
      <stop offset="0.4" stop-color="#FFB84D" stop-opacity="0.8"/>
      <stop offset="0.8" stop-color="#E0A951" stop-opacity="0.35"/>
      <stop offset="1" stop-color="#E0A951" stop-opacity="0"/>
    </radialGradient>
    <clipPath id="squircle">
      <rect x="100" y="100" width="824" height="824" rx="185" ry="185"/>
    </clipPath>
  </defs>
  <g clip-path="url(#squircle)">
    <rect x="100" y="100" width="824" height="824" fill="url(#bg)"/>
    <circle cx="512" cy="512" r="380" fill="url(#coreGlow)"/>
    <g transform="translate(47.2,-73.7) scale(14.71)" fill="#FFC670">
      <path d="M22.2,58.6c2.4,2.7,5.4,3.7,8.8,3.1c2.2-0.4,4-1.5,5.5-3.3c1.2-1.5,1.9-3.2,2.1-4.9c0.1-1.2,0.2-2.4,0.1-3.9 c0-1.1,0.4-2,1.1-2.8l0.5-0.5c0.9-0.8,1.8-1.7,2.5-2.6c3.2-3.7,4.4-8.1,3.6-12.9c-0.6-3.9-2.5-7.1-5.5-9.5 c-4.4-3.5-9.4-4.4-14.8-2.8c-4.2,1.3-7.4,4.1-9.4,8.2c-0.3,0.6-0.2,1.2,0.3,1.6c0.3,0.3,0.6,0.4,1,0.4c0.5,0,1-0.3,1.2-0.8 c0.6-1.2,1.2-2.2,2-3.1c3.4-3.7,7.5-5.1,12.3-4.1c5.6,1.1,9.9,5.9,10.3,11.5c0.3,3.8-0.9,7.2-3.5,10c-0.8,0.9-1.6,1.7-2.6,2.6 c-0.9,0.9-1.4,1.7-1.6,2.6c-0.2,0.6-0.2,1.3-0.3,2c0,0.1,0,0.3,0,0.4h0.1v0.9c0,0.3,0,0.6,0,0.9c0,1.7-0.5,3.2-1.5,4.5 c-1.3,1.7-3.2,2.7-5.2,2.7c-0.6,0-1.3-0.1-1.9-0.3c-1.7-0.5-3-1.5-3.8-3c-0.3-0.5-0.6-0.9-1-1c-0.2-0.1-0.3-0.1-0.4-0.1 c-0.4,0-0.7,0.2-1,0.5c-0.4,0.5-0.5,1-0.2,1.5C21.3,57.5,21.7,58.1,22.2,58.6z"/>
      <path d="M39.4,35.4c0.2-1,0.2-2,0-3.1c-0.7-4-4.3-7-8.3-7c-0.5,0-0.9,0-1.4,0.1c-4.1,0.7-7.1,4.2-7.1,8.3 c0,1.8,0,3.8,0,5.9c0,1,0.4,2,1.1,2.8c0.8,0.9,1.9,1.4,3.3,1.5c0.5,0,1,0.3,1.2,0.6c0.5,0.6,0.5,1.4,0.2,2.2c-0.2,0.6-0.8,1-1.6,1 c-0.7,0-1.3,0.7-1.3,1.4c0,0.7,0.7,1.3,1.4,1.3H27c1.1,0,2.1-0.4,2.9-1.2c1.4-1.4,1.8-3.1,1.2-5.3c-0.5-1.7-2.1-2.9-4-3 c-1.1,0-1.7-0.7-1.7-1.8c0-0.7,0-1.3,0-2v-1.6c0-0.6,0-1.2,0-1.8c0-3,2.2-5.5,5.1-5.8c3-0.3,5.8,1.9,6.2,4.8c0.1,0.5,0,1,0,1.5 c0,0.2,0,0.4,0,0.6c0,0.8,0.5,1.4,1.2,1.4C38.6,36.6,39.3,36.1,39.4,35.4z"/>
    </g>
  </g>
</svg>
