<!-- manbok menu bar icon — MIC ACCESS NEEDED (watching ear + warning slash overlay).
     Failure overlay on the Watching state, not a third state (see flows.md F1).
     Ear = currentColor (gray in menu bar); slash tinted amber/system-warning at runtime. -->
<svg xmlns="http://www.w3.org/2000/svg" viewBox="0 0 72 72" fill="currentColor">
  <path d="M22.2,58.6c2.4,2.7,5.4,3.7,8.8,3.1c2.2-0.4,4-1.5,5.5-3.3c1.2-1.5,1.9-3.2,2.1-4.9c0.1-1.2,0.2-2.4,0.1-3.9 c0-1.1,0.4-2,1.1-2.8l0.5-0.5c0.9-0.8,1.8-1.7,2.5-2.6c3.2-3.7,4.4-8.1,3.6-12.9c-0.6-3.9-2.5-7.1-5.5-9.5 c-4.4-3.5-9.4-4.4-14.8-2.8c-4.2,1.3-7.4,4.1-9.4,8.2c-0.3,0.6-0.2,1.2,0.3,1.6c0.3,0.3,0.6,0.4,1,0.4c0.5,0,1-0.3,1.2-0.8 c0.6-1.2,1.2-2.2,2-3.1c3.4-3.7,7.5-5.1,12.3-4.1c5.6,1.1,9.9,5.9,10.3,11.5c0.3,3.8-0.9,7.2-3.5,10c-0.8,0.9-1.6,1.7-2.6,2.6 c-0.9,0.9-1.4,1.7-1.6,2.6c-0.2,0.6-0.2,1.3-0.3,2c0,0.1,0,0.3,0,0.4h0.1v0.9c0,0.3,0,0.6,0,0.9c0,1.7-0.5,3.2-1.5,4.5 c-1.3,1.7-3.2,2.7-5.2,2.7c-0.6,0-1.3-0.1-1.9-0.3c-1.7-0.5-3-1.5-3.8-3c-0.3-0.5-0.6-0.9-1-1c-0.2-0.1-0.3-0.1-0.4-0.1 c-0.4,0-0.7,0.2-1,0.5c-0.4,0.5-0.5,1-0.2,1.5C21.3,57.5,21.7,58.1,22.2,58.6z"/>
  <path d="M39.4,35.4c0.2-1,0.2-2,0-3.1c-0.7-4-4.3-7-8.3-7c-0.5,0-0.9,0-1.4,0.1c-4.1,0.7-7.1,4.2-7.1,8.3 c0,1.8,0,3.8,0,5.9c0,1,0.4,2,1.1,2.8c0.8,0.9,1.9,1.4,3.3,1.5c0.5,0,1,0.3,1.2,0.6c0.5,0.6,0.5,1.4,0.2,2.2c-0.2,0.6-0.8,1-1.6,1 c-0.7,0-1.3,0.7-1.3,1.4c0,0.7,0.7,1.3,1.4,1.3H27c1.1,0,2.1-0.4,2.9-1.2c1.4-1.4,1.8-3.1,1.2-5.3c-0.5-1.7-2.1-2.9-4-3 c-1.1,0-1.7-0.7-1.7-1.8c0-0.7,0-1.3,0-2v-1.6c0-0.6,0-1.2,0-1.8c0-3,2.2-5.5,5.1-5.8c3-0.3,5.8,1.9,6.2,4.8c0.1,0.5,0,1,0,1.5 c0,0.2,0,0.4,0,0.6c0,0.8,0.5,1.4,1.2,1.4C38.6,36.6,39.3,36.1,39.4,35.4z"/>
  <line x1="12" y1="62" x2="60" y2="12" stroke="#ffd60a" stroke-width="6" stroke-linecap="round" fill="none"/>
</svg>
