<!-- manbok menu bar icon — RECORDING (tinted red #ff453a at runtime; currentColor here).
     Derived from mockups/audiology.svg (stakeholder pick 2026-07-04): background circle
     dropped; ear + all three sound-wave arcs kept — the waves are the recording variant's
     shape change, so watching/recording differ by shape AND color (a11y: not color-alone). -->
<svg xmlns="http://www.w3.org/2000/svg" viewBox="0 0 72 72" fill="currentColor">
  <path d="M22.2,58.6c2.4,2.7,5.4,3.7,8.8,3.1c2.2-0.4,4-1.5,5.5-3.3c1.2-1.5,1.9-3.2,2.1-4.9c0.1-1.2,0.2-2.4,0.1-3.9 c0-1.1,0.4-2,1.1-2.8l0.5-0.5c0.9-0.8,1.8-1.7,2.5-2.6c3.2-3.7,4.4-8.1,3.6-12.9c-0.6-3.9-2.5-7.1-5.5-9.5 c-4.4-3.5-9.4-4.4-14.8-2.8c-4.2,1.3-7.4,4.1-9.4,8.2c-0.3,0.6-0.2,1.2,0.3,1.6c0.3,0.3,0.6,0.4,1,0.4c0.5,0,1-0.3,1.2-0.8 c0.6-1.2,1.2-2.2,2-3.1c3.4-3.7,7.5-5.1,12.3-4.1c5.6,1.1,9.9,5.9,10.3,11.5c0.3,3.8-0.9,7.2-3.5,10c-0.8,0.9-1.6,1.7-2.6,2.6 c-0.9,0.9-1.4,1.7-1.6,2.6c-0.2,0.6-0.2,1.3-0.3,2c0,0.1,0,0.3,0,0.4h0.1v0.9c0,0.3,0,0.6,0,0.9c0,1.7-0.5,3.2-1.5,4.5 c-1.3,1.7-3.2,2.7-5.2,2.7c-0.6,0-1.3-0.1-1.9-0.3c-1.7-0.5-3-1.5-3.8-3c-0.3-0.5-0.6-0.9-1-1c-0.2-0.1-0.3-0.1-0.4-0.1 c-0.4,0-0.7,0.2-1,0.5c-0.4,0.5-0.5,1-0.2,1.5C21.3,57.5,21.7,58.1,22.2,58.6z"/>
  <path d="M39.4,35.4c0.2-1,0.2-2,0-3.1c-0.7-4-4.3-7-8.3-7c-0.5,0-0.9,0-1.4,0.1c-4.1,0.7-7.1,4.2-7.1,8.3 c0,1.8,0,3.8,0,5.9c0,1,0.4,2,1.1,2.8c0.8,0.9,1.9,1.4,3.3,1.5c0.5,0,1,0.3,1.2,0.6c0.5,0.6,0.5,1.4,0.2,2.2c-0.2,0.6-0.8,1-1.6,1 c-0.7,0-1.3,0.7-1.3,1.4c0,0.7,0.7,1.3,1.4,1.3H27c1.1,0,2.1-0.4,2.9-1.2c1.4-1.4,1.8-3.1,1.2-5.3c-0.5-1.7-2.1-2.9-4-3 c-1.1,0-1.7-0.7-1.7-1.8c0-0.7,0-1.3,0-2v-1.6c0-0.6,0-1.2,0-1.8c0-3,2.2-5.5,5.1-5.8c3-0.3,5.8,1.9,6.2,4.8c0.1,0.5,0,1,0,1.5 c0,0.2,0,0.4,0,0.6c0,0.8,0.5,1.4,1.2,1.4C38.6,36.6,39.3,36.1,39.4,35.4z"/>
  <path d="M58.4,35.3c0.4,0.1,0.9,0,1.1-0.5c1.3-2.1,2-4.5,2-7c0-1.4-0.2-2.8-0.6-4.1c-1-3.1-2.9-5.6-5.7-7.3 c-0.1-0.1-0.3-0.1-0.5-0.1h-0.1c-0.4,0-0.7,0.3-0.8,0.7c-0.1,0.4,0.1,0.8,0.4,1.1l0.3,0.2c0.3,0.2,0.7,0.5,1,0.7 c1.3,1.1,2.3,2.4,3,4c1.1,2.4,1.3,5,0.7,7.5c-0.3,1.1-0.7,2.2-1.4,3.3c-0.1,0.1-0.1,0.3-0.1,0.4C57.7,34.8,58,35.2,58.4,35.3z"/>
  <path d="M56.4,27.7c0-0.7-0.1-1.6-0.4-2.5c-0.6-2.1-1.9-3.8-3.8-5c-0.1-0.1-0.3-0.1-0.5-0.1c-0.1,0-0.2,0-0.3,0 c-0.4,0.1-0.6,0.3-0.7,0.7c-0.1,0.4,0.1,0.7,0.4,1l0.2,0.1c0.3,0.3,0.7,0.5,1,0.8c0.9,0.8,1.5,1.9,1.9,3.3c0.3,1,0.3,2.1,0.1,3 c-0.2,0.9-0.5,1.7-1,2.6c-0.2,0.3-0.1,0.5-0.1,0.7c0.1,0.3,0.2,0.5,0.4,0.6c0.1,0.1,0.3,0.1,0.5,0.1c0.3,0,0.6-0.2,0.8-0.4 C56,31.1,56.4,29.5,56.4,27.7z"/>
  <path d="M51.4,27.8c-0.1-1.7-0.8-3-2.1-3.9c-0.1-0.1-0.3-0.1-0.5-0.1c-0.3,0-0.7,0.2-0.8,0.5 c-0.2,0.4-0.1,0.9,0.2,1.2c0.1,0.1,0.1,0.1,0.2,0.2c0.2,0.2,0.5,0.4,0.6,0.7c0.7,1,0.7,2,0,3.1c-0.3,0.5-0.1,1,0.3,1.3 s1,0.1,1.3-0.3C51.2,29.5,51.4,28.7,51.4,27.8z"/>
</svg>
